<svg width="42" height="58" viewBox="0 0 42 58" fill="none" xmlns="http://www.w3.org/2000/svg">
<path d="M25.7831 36.7495L24.4 26.5809C24.3108 25.9301 24.0637 25.3454 23.7215 24.8386L24.5599 23.1616L22.865 22.3137L22.2558 23.5321C21.6637 23.2336 20.9976 23.081 20.3003 23.1437C19.2478 23.2309 18.3042 23.732 17.6446 24.5535C16.9946 25.3627 16.703 26.4171 16.843 27.4449L17.8237 34.6529L10.4784 52.5997L11.7953 53.1389C12.5257 53.4373 12.8772 54.2757 12.5788 55.0063C12.2794 55.7377 11.441 56.091 10.7114 55.7888L2.78539 52.5448C2.05503 52.2464 1.70347 51.4088 2.0019 50.6774C2.30133 49.947 3.13973 49.5965 3.8693 49.8949L5.18719 50.4341L6.26812 47.7918L8.47374 48.6946C8.88498 48.8633 9.31035 48.9429 9.72915 48.9429C11.0403 48.9429 12.2853 48.1622 12.812 46.8758C13.1482 46.0535 13.1454 45.1496 12.8016 44.3291C12.7002 44.0884 12.5667 43.8687 12.417 43.6622C13.0044 43.2956 13.4657 42.7641 13.7329 42.1114C14.1848 41.0076 13.9896 39.8035 13.337 38.9016C13.9092 38.5455 14.3811 38.0167 14.6549 37.347C15.1067 36.2424 14.9108 35.0371 14.257 34.1352C14.8453 33.7686 15.3087 33.2371 15.5767 32.5834C16.2105 31.0353 15.5787 29.2911 14.1764 28.467L15.2764 25.7791L13.9586 25.2419C13.6042 25.0979 13.3277 24.8231 13.1798 24.4707C13.032 24.1184 13.0302 23.7288 13.1751 23.3755C13.4745 22.6451 14.3111 22.2916 15.0425 22.593L16.3604 23.1322L17.4395 20.4936L15.6859 19.7754L15.3107 20.6916C13.7331 20.2937 12.0553 21.1084 11.4215 22.6575C11.0852 23.4798 11.088 24.3836 11.4318 25.2041C11.7131 25.8768 12.1964 26.4253 12.815 26.7872L12.4389 27.7062L9.35233 26.4432C7.65166 25.7469 5.70865 26.5654 5.0141 28.2622C4.56227 29.3678 4.75824 30.5721 5.413 31.475C4.84081 31.8311 4.36709 32.357 4.09333 33.0268C3.6415 34.1315 3.83747 35.3367 4.49124 36.2386C3.91904 36.5947 3.44632 37.1206 3.17157 37.7904C2.71974 38.8951 2.91571 40.1003 3.56948 41.0022C2.98117 41.3689 2.5178 41.9013 2.2506 42.555C1.55624 44.2519 2.37097 46.1987 4.06866 46.8933L4.51293 47.0751L4.1369 47.9941C2.55659 47.5942 0.881584 48.4119 0.24771 49.96C-0.446646 51.6577 0.369074 53.6047 2.06577 54.2992L9.99177 57.5432C10.403 57.7119 10.8284 57.7915 11.2472 57.7915C12.5583 57.7915 13.8042 57.0108 14.331 55.7243C14.9649 54.1745 14.3396 52.4179 12.9355 51.5956L13.4974 50.2228L13.648 50.2845C15.6479 51.103 17.9208 50.8652 19.7076 49.6791L36.597 56.5904L42 43.3863L25.7831 36.7495ZM5.70945 40.3743C4.97908 40.0759 4.62753 39.2383 4.92596 38.5069C5.22439 37.7793 6.12626 37.4287 6.85384 37.7224L10.4484 39.0053V38.8433C10.4484 38.8433 10.3177 38.8433 10.3187 38.8433L11.1969 39.3644C11.9272 39.6628 12.2788 40.5818 11.9793 41.3122C11.8353 41.6665 11.5615 41.9828 11.2082 42.1307C10.8558 42.2785 10.4673 42.3012 10.1149 42.1563L8.5772 41.5376L5.70945 40.3743ZM6.63042 35.626C5.90005 35.3276 5.54849 34.4816 5.84792 33.751C6.14636 33.0197 6.98296 32.6671 7.71234 32.9638L9.24907 33.5909L12.1178 34.7637C12.8482 35.0622 13.1997 35.8998 12.9013 36.6301C12.6029 37.3577 11.7663 37.7244 11.0377 37.4287L7.5104 36.001C7.5094 36.001 7.50841 36.001 7.50761 36.001L6.63042 35.626ZM6.76869 28.9799C6.9961 28.4256 7.53129 28.0904 8.09592 28.0904C8.27598 28.0904 8.45882 28.1244 8.63589 28.1974L13.0394 29.9993C13.7697 30.2978 14.1213 31.1354 13.8219 31.8667C13.6778 32.2211 13.4041 32.4968 13.0517 32.6447C12.7002 32.7915 12.3108 32.7953 11.9555 32.6484L9.74129 31.771L8.43196 31.2641C8.43097 31.2641 8.43097 31.2641 8.42997 31.2641L7.55178 30.8757C6.82082 30.5771 6.46926 29.7103 6.76869 28.9799ZM4.00977 44.3677C3.86194 44.0154 3.86015 43.6258 4.00599 43.2715C4.15103 42.9181 4.42379 42.6414 4.77615 42.4946C4.95421 42.4198 5.14183 42.3818 5.32944 42.3818C5.51328 42.3818 5.69711 42.4178 5.87239 42.4898L6.72691 42.8394L9.39391 43.9308C9.39491 43.9318 9.3967 43.9318 9.39769 43.9318L10.2741 44.2909C10.6284 44.435 10.905 44.7097 11.0528 45.0621C11.2006 45.4144 11.2024 45.804 11.0576 46.1573C10.9125 46.5117 10.6388 46.7874 10.2854 46.9353C9.93388 47.0831 9.54452 47.0859 9.19018 46.94L4.78669 45.1381C4.43334 44.9938 4.15759 44.7201 4.00977 44.3677ZM35.5624 54.1174L19.4233 47.513L18.9884 47.8608C17.6818 48.9039 15.9103 49.1606 14.3678 48.5287L14.2172 48.468L19.7691 34.9012L18.7204 27.1893C18.6493 26.6654 18.7924 26.1509 19.1221 25.7389C19.4527 25.3269 19.9274 25.0758 20.4561 25.0312C21.4498 24.9478 22.3746 25.7588 22.5224 26.8359L24.0524 38.0893L39.5292 44.4226L35.5624 54.1174Z" fill="#333333"/>
<path d="M37.4686 13.9351L30.6046 9.88876C30.1535 9.62255 29.7548 8.97834 29.7188 8.45627L29.1608 0.508384C29.1237 -0.0136759 28.7732 -0.15772 28.381 0.18906L22.4114 5.46617C22.0192 5.81295 21.2831 5.993 20.7752 5.86607L13.0443 3.94097C12.5366 3.81503 12.2911 4.10392 12.4996 4.5842L15.6743 11.8924C15.8828 12.3727 15.8269 13.1288 15.5492 13.5722L11.3285 20.3302C11.051 20.7744 11.2509 21.0965 11.772 21.0464L19.7038 20.2856C20.2248 20.2355 20.926 20.5224 21.2632 20.9233L26.3859 27.0254C26.7221 27.4261 27.0908 27.3362 27.2044 26.8255L28.9316 19.0473C29.0452 18.5366 29.535 17.9578 30.02 17.7616L37.4071 14.7753C37.8909 14.5793 37.9194 14.2013 37.4686 13.9351Z" fill="#F76548"/>
<path d="M24.8556 17.3637L23.1229 16.655L26.3658 8.72801L22.8461 7.28796L22.1299 9.04256L23.894 9.76457L21.3693 15.937L19.6031 15.215L18.8851 16.9686L24.1375 19.1183L24.8556 17.3637Z" fill="#333333"/>
</svg>
