<svg width="55" height="55" viewBox="0 0 55 55" fill="none" xmlns="http://www.w3.org/2000/svg">
<path d="M16.8548 5.32251H41.6934L35.4838 12.4194L41.6934 20.4033H16.8548V5.32251Z" fill="#F76548"/>
<path d="M46.9966 35.6428C46.6169 28.6427 40.8021 23.0646 33.7096 23.0646C28.9184 23.0646 24.4696 25.6984 22.1259 29.8474C21.3124 29.4713 20.4262 29.2744 19.516 29.2744C18.9047 29.2744 18.3105 29.3737 17.7417 29.5449V5.1595C18.7717 4.79232 19.516 3.81634 19.516 2.66134C19.5162 1.19412 18.322 0 16.8548 0C15.3876 0 14.1935 1.19412 14.1935 2.66134C14.1935 3.81634 14.9377 4.79213 15.9677 5.1595V30.4045C15.273 30.8907 14.6707 31.5116 14.2184 32.2513C13.341 32.0419 12.4407 31.9356 11.5323 31.9356C5.17347 31.9356 0 37.109 0 43.4677C0 49.8263 5.17347 55 11.5323 55H45.2419C50.6222 55 55 50.6222 55 45.2419C55 40.4684 51.6114 36.4712 46.9966 35.6428ZM16.8548 1.77423C17.3446 1.77423 17.7419 2.17252 17.7419 2.66134C17.7419 3.15017 17.3446 3.54846 16.8548 3.54846C16.3651 3.54846 15.9677 3.15017 15.9677 2.66134C15.9677 2.17252 16.3652 1.77423 16.8548 1.77423ZM45.2419 53.2258H11.5323C6.15205 53.2258 1.77423 48.8479 1.77423 43.4677C1.77423 38.0874 6.15205 33.7096 11.5323 33.7096C12.5116 33.7096 13.4777 33.8551 14.4073 34.1416L15.1551 34.3713L15.4772 33.6589C15.6095 33.3663 15.7807 33.1001 15.9677 32.8482V44.3548H12.4194V46.129H37.2581V44.3548H17.7419V31.4272C18.2928 31.185 18.8934 31.0485 19.5162 31.0485C20.4049 31.0485 21.2619 31.3102 21.9947 31.8061L22.8508 32.3836L23.2924 31.4495C25.1945 27.4337 29.2839 24.8388 33.7096 24.8388C40.0683 24.8388 45.2419 30.0123 45.2436 36.3162L45.2391 37.2201L46.0383 37.2991C50.1367 37.7044 53.2256 41.1199 53.2256 45.2421C53.2258 49.6445 49.6445 53.2258 45.2419 53.2258Z" fill="#333333"/>
<path d="M44.355 44.3547H39.9194V46.129H44.355V44.3547Z" fill="#333333"/>
</svg>
