<svg width="59" height="59" viewBox="0 0 59 59" fill="none" xmlns="http://www.w3.org/2000/svg">
<path d="M34.2582 19.0322H24.742V13.5511C22.9455 12.1084 21.8871 9.92539 21.8871 7.61306C21.8871 3.41524 25.3024 0 29.5 0C33.6976 0 37.1128 3.41524 37.1128 7.61286C37.1128 9.92619 36.0547 12.1092 34.258 13.5509L34.2582 19.0322Z" fill="#F76548"/>
<path d="M35.2096 14.2743H30.4514V10.2927C31.5563 9.89879 32.3547 8.85183 32.3547 7.61283C32.3547 6.0389 31.0737 4.75793 29.4998 4.75793C27.9258 4.75793 26.6449 6.0389 26.6449 7.61283C26.6449 8.85183 27.4432 9.89859 28.5481 10.2927V14.2743H23.79V16.1775H35.2094L35.2096 14.2743ZM29.5 6.6612C30.0253 6.6612 30.4516 7.08846 30.4516 7.61283C30.4516 8.13721 30.0253 8.56447 29.5 8.56447C28.9746 8.56447 28.5483 8.13721 28.5483 7.61283C28.5481 7.08846 28.9746 6.6612 29.5 6.6612Z" fill="#333333"/>
<path d="M37.8674 41.0707L36.8359 42.6715C39.9885 44.704 41.8708 48.148 41.8708 51.883V57.0968H30.0462L36.9834 45.2054L35.3381 44.2462L29.5 54.2571L23.6609 44.2464L22.0156 45.2056L28.9538 57.097H17.129V51.8832C17.129 48.1472 19.0113 44.7032 22.1639 42.6707L21.1323 41.0699C17.4333 43.4566 15.2257 47.4982 15.2257 51.8832V59.0003H43.7741V51.8832C43.7743 47.498 41.5665 43.4564 37.8674 41.0707Z" fill="#333333"/>
<path d="M18.9437 32.3928C18.9437 38.1861 23.6561 42.8985 29.4495 42.8985C35.2428 42.8985 39.9552 38.1861 39.9552 32.3928C39.9552 26.6003 35.2428 21.8871 29.4495 21.8871C23.6561 21.8871 18.9437 26.6005 18.9437 32.3928ZM38.0521 32.3928C38.0521 37.1356 34.1924 40.9955 29.4495 40.9955C24.7065 40.9955 20.8468 37.1358 20.8468 32.3928C20.8468 27.649 24.7065 23.7901 29.4495 23.7901C34.1924 23.7901 38.0521 27.649 38.0521 32.3928Z" fill="#333333"/>
<path d="M16.5942 35.8985C15.8073 36.1231 15.0097 36.2373 14.2247 36.2373C9.48197 36.2373 5.62208 32.3776 5.62208 27.6346C5.62208 22.8908 9.48177 19.0319 14.2247 19.0319C16.814 19.0319 19.2407 20.1834 20.8842 22.1922L22.3582 20.9866C20.3512 18.5351 17.387 17.1287 14.2237 17.1287C8.43042 17.1287 3.71802 21.8421 3.71802 27.6344C3.71802 33.4277 8.43042 38.1401 14.2237 38.1401C15.1858 38.1401 16.1584 38.0012 17.1156 37.7281L16.5942 35.8985Z" fill="#333333"/>
<path d="M1.90326 47.1248C1.90326 43.3888 3.78555 39.9448 6.9382 37.9122L5.90663 36.3115C2.20782 38.6984 0 42.7397 0 47.1248V54.2419H12.371V52.3386H1.90326V47.1248Z" fill="#333333"/>
<path d="M55.1813 27.6349C55.1813 21.8423 50.4689 17.1292 44.6756 17.1292C41.5133 17.1292 38.5491 18.5356 36.5421 20.987L38.0161 22.1927C39.6596 20.1839 42.087 19.0324 44.6756 19.0324C49.4183 19.0324 53.2782 22.8913 53.2782 27.6351C53.2782 32.3778 49.4185 36.2377 44.6756 36.2377C43.8904 36.2377 43.093 36.1236 42.3061 35.899L41.7817 37.7279C42.7389 38.0019 43.7125 38.1418 44.6756 38.1418C50.4689 38.1406 55.1813 33.4282 55.1813 27.6349Z" fill="#333333"/>
<path d="M53.0934 36.3127L52.0618 37.9135C55.2145 39.946 57.0968 43.39 57.0968 47.125V52.3388H47.5806H45.6774V54.2421H59V47.125C59 42.7398 56.792 38.6984 53.0934 36.3127Z" fill="#333333"/>
</svg>
