<svg width="55" height="58" viewBox="0 0 55 58" fill="none" xmlns="http://www.w3.org/2000/svg">
<path d="M42.5336 27.0667C42.5336 18.5243 35.6092 11.6001 27.0669 11.6001C20.3931 11.6001 14.9835 17.0097 14.9835 23.6835C14.9835 24.6163 15.0994 25.5211 15.2996 26.3932L11.6001 32.8669L15.4669 33.8336V40.6002H19.3336V45.4336H34.8003V40.4427C39.4189 37.7687 42.5336 32.7875 42.5336 27.0667Z" fill="#F76548"/>
<path d="M34.8001 44.467H31.9V34.8496C32.4984 34.0599 32.8667 33.0874 32.8667 32.0212V31.7796C32.8667 29.1812 30.7526 27.0672 28.1542 27.0672H25.9793C24.447 27.0672 23.2002 25.8201 23.2002 24.2881V24.0465C23.2002 22.5142 24.4472 21.2674 25.9793 21.2674H28.1542C29.6865 21.2674 30.9333 22.5144 30.9333 24.0465V24.1673H32.8667V24.0465C32.8667 21.4481 30.7526 19.334 28.1542 19.334H28.0334V16.4333H26.1001V19.3334H25.9793C23.3809 19.3334 21.2668 21.4475 21.2668 24.0459V24.2875C21.2668 26.8859 23.3809 28.9999 25.9793 28.9999H28.1542C29.6865 28.9999 30.9333 30.247 30.9333 31.779V32.0206C30.9333 33.5528 29.6863 34.7997 28.1542 34.7997H25.9793C24.447 34.7997 23.2002 33.833 23.2002 31.8996H21.2668C21.2668 32.8663 21.635 34.0581 22.2335 34.849V44.4664H19.3334C17.7346 44.4664 16.4333 45.7676 16.4333 47.3664C16.4333 48.3959 16.9766 49.297 17.7876 49.8112C17.5478 50.2336 17.3998 50.7141 17.3998 51.2332C17.3998 52.2626 17.9431 53.1637 18.7541 53.678C18.5143 54.1004 18.3663 54.5809 18.3663 55.1C18.3663 56.6988 19.6676 58 21.2664 58H32.8665C34.4653 58 35.7665 56.6988 35.7665 55.1C35.7665 54.5809 35.6186 54.1004 35.3788 53.678C36.1898 53.1637 36.733 52.2628 36.733 51.2332C36.733 50.7141 36.585 50.2336 36.3453 49.8112C37.1563 49.297 37.6995 48.3961 37.6995 47.3664C37.7001 45.768 36.3991 44.467 34.8001 44.467ZM24.1667 36.3691C24.7253 36.6029 25.3374 36.7335 25.9793 36.7335H26.1001V39.6335H28.0334V36.7335H28.1542C28.7961 36.7335 29.408 36.6029 29.9668 36.3691V44.4668H24.1669V36.3691H24.1667ZM19.3334 46.4002H34.8001C35.3337 46.4002 35.7668 46.8332 35.7668 47.3668C35.7668 47.9005 35.3337 48.3335 34.8001 48.3335H33.8334H20.2999H19.3332C18.7995 48.3335 18.3665 47.9005 18.3665 47.3668C18.3667 46.8334 18.7997 46.4002 19.3334 46.4002ZM34.8001 51.2336C34.8001 51.7673 34.3671 52.2003 33.8334 52.2003H32.8667H21.2666H20.2999C19.7662 52.2003 19.3332 51.7673 19.3332 51.2336C19.3332 50.6999 19.7662 50.2669 20.2999 50.2669H33.8334C34.3671 50.2669 34.8001 50.6999 34.8001 51.2336ZM32.8669 56.0669H21.2668C20.7331 56.0669 20.3001 55.6339 20.3001 55.1002C20.3001 54.5665 20.7331 54.1335 21.2668 54.1335H32.8669C33.4006 54.1335 33.8336 54.5665 33.8336 55.1002C33.8334 55.6339 33.4004 56.0669 32.8669 56.0669Z" fill="#333333"/>
<path d="M28.0334 0H26.1V6.76663H28.0334V0Z" fill="#333333"/>
<path d="M14.3712 3.143L12.6967 4.1095L16.0795 9.97025L17.754 9.00375L14.3712 3.143Z" fill="#333333"/>
<path d="M4.10898 12.6973L3.14229 14.3716L9.00201 17.7548L9.96871 16.0805L4.10898 12.6973Z" fill="#333333"/>
<path d="M6.76663 26.1H0V28.0334H6.76663V26.1Z" fill="#333333"/>
<path d="M9.00225 36.3815L3.14149 39.7643L4.10799 41.4388L9.96875 38.056L9.00225 36.3815Z" fill="#333333"/>
<path d="M45.1303 36.3822L44.1636 38.0565L50.0233 41.4397L50.99 39.7654L45.1303 36.3822Z" fill="#333333"/>
<path d="M54.1335 26.1H47.3668V28.0334H54.1335V26.1Z" fill="#333333"/>
<path d="M50.0255 12.6977L44.1648 16.0804L45.1313 17.7549L50.992 14.3722L50.0255 12.6977Z" fill="#333333"/>
<path d="M39.7617 3.1412L36.3789 9.00195L38.0534 9.96845L41.4362 4.1077L39.7617 3.1412Z" fill="#333333"/>
</svg>
