<svg width="39" height="39" viewBox="0 0 39 39" fill="none" xmlns="http://www.w3.org/2000/svg">
<path d="M39 39H0V29.0254H10.6935V22.0161H28.3064V29.0254H38.9999V39H39Z" fill="#F76548"/>
<path d="M20.129 24.5322H17.6128V25.7903H18.8709V28.3065H17.6128V29.5646H21.3871V28.3065H20.129V24.5322Z" fill="#333333"/>
<path d="M3.14524 32.7098H5.66129V33.4766L3.14524 34.1056V36.4839H6.91938V35.2259H4.4032V35.0882L6.91938 34.4591V31.4517H3.14524V32.7098Z" fill="#333333"/>
<path d="M32.0807 31.4517V32.7098H34.5968V33.3388H32.0807V34.5969H34.5968V35.2259H32.0807V36.4839H35.8549V31.4517H32.0807Z" fill="#333333"/>
<path d="M25.4776 0.654143C24.58 0.80011 23.9031 1.63034 23.9031 2.58342V4.04652L21.7436 5.34239C22.2997 4.77504 22.645 4.00068 22.645 3.14523C22.645 1.41093 21.2341 0 19.4998 0C17.7655 0 16.3546 1.41093 16.3546 3.14523C16.3546 4.17743 16.8616 5.08771 17.6321 5.66141H15.0965V4.47068C15.0965 3.51708 14.4196 2.68738 13.522 2.54141C12.9697 2.45211 12.4099 2.60614 11.9878 2.96544C11.5645 3.32461 11.3223 3.84864 11.3223 4.40345V7.56875C11.3223 8.59845 12.1596 9.43568 13.1887 9.43568H16.3547V19.5001C16.3547 20.5405 17.2014 21.3873 18.2418 21.3873C18.7249 21.3873 19.1659 21.2048 19.4999 20.9054C19.834 21.2048 20.2749 21.3873 20.758 21.3873C21.7984 21.3873 22.6452 20.5405 22.6452 19.5001V8.82724L26.8597 6.48529C27.3642 6.20538 27.6774 5.67316 27.6774 5.09643V2.51618C27.6774 1.96137 27.4353 1.43735 27.0119 1.07817C26.5897 0.719003 26.0305 0.565506 25.4776 0.654143ZM19.4999 1.25809C20.5403 1.25809 21.3871 2.10483 21.3871 3.14523C21.3871 4.18562 20.5403 5.03236 19.4999 5.03236C18.4595 5.03236 17.6128 4.18562 17.6128 3.14523C17.6128 2.10483 18.4595 1.25809 19.4999 1.25809ZM26.4193 5.09709C26.4193 5.21664 26.3539 5.32733 26.2489 5.38585L21.3871 8.08631V19.5001C21.3871 19.8474 21.1046 20.1292 20.758 20.1292C20.4114 20.1292 20.129 19.8474 20.129 19.5001V13.2097H18.8709V19.5C18.8709 19.8473 18.5885 20.129 18.2418 20.129C17.8952 20.129 17.6128 19.8473 17.6128 19.5V8.17745H13.1889C12.8536 8.17745 12.5806 7.90388 12.5806 7.56849V4.40318C12.5806 4.21825 12.6611 4.04335 12.8026 3.92328C12.9454 3.80188 13.1272 3.75023 13.3196 3.78299C13.6109 3.83081 13.8386 4.13212 13.8386 4.47055V6.91936H21.5613L25.1612 4.75932V2.58342C25.1612 2.24499 25.3889 1.94301 25.6802 1.89585C25.8715 1.86441 26.0544 1.91474 26.1972 2.03614C26.3387 2.15635 26.4193 2.33111 26.4193 2.51605V5.09709Z" fill="#333333"/>
</svg>
