<svg width="54" height="56" viewBox="0 0 54 56" fill="none" xmlns="http://www.w3.org/2000/svg">
<path d="M27.9 37.0999H26.1V55.9998H27.9V37.0999Z" fill="#F76548"/>
<path d="M23.4001 37.0999H21.6001V51.4998H23.4001V37.0999Z" fill="#F76548"/>
<path d="M18.9 45.2001H17.1V47.0001H18.9V45.2001Z" fill="#F76548"/>
<path d="M18.9 37.0999H17.1V43.3998H18.9V37.0999Z" fill="#F76548"/>
<path d="M32.4001 49.7002H30.6001V51.5002H32.4001V49.7002Z" fill="#F76548"/>
<path d="M32.4001 37.0999H30.6001V47.8999H32.4001V37.0999Z" fill="#F76548"/>
<path d="M36.9 37.0999H35.1V46.9999H36.9V37.0999Z" fill="#F76548"/>
<path d="M27 22.7C30.4794 22.7 33.3 19.8794 33.3 16.4C33.3 12.9207 30.4794 10.1001 27 10.1001C23.5206 10.1001 20.7001 12.9207 20.7001 16.4C20.7001 19.8794 23.5206 22.7 27 22.7Z" fill="#F76548"/>
<path d="M37.8001 22.8323V16.9256C37.8001 11.2152 34.9246 5.97628 30.1068 2.90994L27 0.932617L23.8932 2.90899C19.0756 5.97628 16.2 11.2152 16.2 16.9256V22.8323C11.5307 23.734 8.09998 27.8173 8.09998 32.6505V43.4H9.90002C9.90002 40.422 12.3219 38.0001 15.2999 38.0001H38.6999C41.678 38.0001 44.0998 40.422 44.0998 43.4H45.8998V32.6505C45.9 27.8175 42.4693 23.7342 37.8001 22.8323ZM24.8598 4.42818L27 3.06738L29.1403 4.42912C33.4351 7.16244 36 11.8343 36 16.9256V28.1001H18V16.9256C18 11.8343 20.5649 7.16244 24.8598 4.42818ZM15.2999 36.2001C13.1516 36.2001 11.2202 37.146 9.90002 38.6427V32.6505C9.90002 28.8066 12.547 25.544 16.2 24.6765V36.2001H15.2999ZM18 36.2001V29.9001H36V36.2001H18ZM44.1 38.6427C42.7796 37.146 40.8483 36.2001 38.7001 36.2001H37.8001V24.6756C41.4532 25.544 44.1 28.8066 44.1 32.6495V38.6427Z" fill="#333333"/>
<path d="M3.59989 8.29993H1.80004V10.1H0V11.9H1.80004V13.6999H3.59989V11.9H5.39993V10.1H3.59989V8.29993Z" fill="#333333"/>
<path d="M8.09998 10.1H9.90002V7.39993H12.6001V5.59989H9.90002V2.90002H8.09998V5.59989H5.39993V7.39993H8.09998V10.1Z" fill="#333333"/>
<path d="M11.7001 18.2V16.4H13.4999V14.6H11.7001V12.7999H9.90002V14.6H8.09998V16.4H9.90002V18.2H11.7001Z" fill="#333333"/>
<path d="M43.2 12.8H45V11.0001H46.8001V9.20006H45V7.40002H43.2V9.20006H41.3999V11.0001H43.2V12.8Z" fill="#333333"/>
<path d="M54 15.5H51.3V12.7999H49.5001V15.5H46.8V17.3H49.5001V20.0001H51.3V17.3H54V15.5Z" fill="#333333"/>
<path d="M41.3999 20.9001H43.2V19.1001H45V17.3H43.2V15.5H41.3999V17.3H39.6001V19.1001H41.3999V20.9001Z" fill="#333333"/>
</svg>
