<svg width="54" height="54" viewBox="0 0 54 54" fill="none" xmlns="http://www.w3.org/2000/svg">
<path d="M52.1981 23.193C51.0467 19.7396 47.8276 17.4193 44.1869 17.4193C40.805 17.4193 37.7582 19.4278 36.4257 22.5362L35.7795 24.043L37.3803 24.7292L38.0265 23.2225C39.0848 20.7558 41.5026 19.1611 44.1869 19.1611C47.0758 19.1611 49.6314 21.0024 50.545 23.7432C51.6815 27.1547 52.2582 30.7065 52.2582 34.3002V50.9513C52.2582 51.6716 51.672 52.2578 50.9517 52.2578C50.2315 52.2578 49.6453 51.6716 49.6453 50.9513V47.9029H47.9033V50.9513C47.9033 51.6716 47.3171 52.2578 46.5968 52.2578C45.8765 52.2578 45.2903 51.6716 45.2903 50.9513V47.9029H43.5484V50.9513C43.5484 51.6716 42.9622 52.2578 42.2419 52.2578C41.5216 52.2578 40.9354 51.6716 40.9354 50.9513V47.9029C40.9354 45.5016 38.9818 43.548 36.5805 43.548V45.2899C38.021 45.2899 39.1934 46.4623 39.1934 47.9029V50.9513C39.1934 52.6322 40.5608 53.9998 42.2419 53.9998C43.0946 53.9998 43.8653 53.6488 44.4194 53.0827C44.9734 53.6488 45.7441 53.9998 46.5968 53.9998C47.4495 53.9998 48.2203 53.6488 48.7743 53.0827C49.3283 53.6488 50.0991 53.9998 50.9517 53.9998C52.6326 53.9998 54.0002 52.6324 54.0002 50.9513V34.3002C54 30.5196 53.3939 26.7823 52.1981 23.193Z" fill="#333333"/>
<path d="M3.45523 23.7444C4.36883 21.0026 6.92344 19.1613 9.81331 19.1613C12.4976 19.1613 14.9154 20.7561 15.9737 23.2236L16.6199 24.7304L18.2206 24.0441L17.5744 22.5374C16.2411 19.428 13.1952 17.4196 9.81331 17.4196C6.17262 17.4196 2.95444 19.7399 1.80306 23.1933C0.606141 26.7824 0 30.5196 0 34.3004V50.9516C0 52.6325 1.36738 54 3.04845 54C3.90114 54 4.6719 53.649 5.22591 53.083C5.77993 53.649 6.55068 54 7.40338 54C8.25607 54 9.02683 53.649 9.58084 53.083C10.1349 53.649 10.9056 54 11.7583 54C13.4392 54 14.8068 52.6326 14.8068 50.9516V47.9031C14.8068 46.4626 15.9792 45.2902 17.4197 45.2902V43.5482C15.0184 43.5482 13.0648 45.5018 13.0648 47.9031V50.9516C13.0648 51.6719 12.4786 52.2581 11.7583 52.2581C11.038 52.2581 10.4518 51.6719 10.4518 50.9516V47.9031H8.70985V50.9516C8.70985 51.6719 8.12365 52.2581 7.40338 52.2581C6.6831 52.2581 6.0969 51.6719 6.0969 50.9516V47.9031H4.35493V50.9516C4.35493 51.6719 3.76872 52.2581 3.04845 52.2581C2.32818 52.2581 1.74197 51.6719 1.74197 50.9516V34.3004C1.74197 30.7069 2.31848 27.1551 3.45523 23.7444Z" fill="#333333"/>
<path d="M27 48.7744C18.8356 48.7744 12.1936 42.1324 12.1936 33.968C12.1936 28.5888 15.1219 23.6252 19.8364 21.0124L20.0332 20.9036H33.967L34.1638 21.0124C38.8783 23.6253 41.8066 28.589 41.8066 33.968C41.8064 42.1322 35.1644 48.7744 27 48.7744Z" fill="#F76548"/>
<path d="M28.7419 26.9999H27.871V24.387H26.129V26.9999H25.258C22.8567 26.9999 20.9031 28.9535 20.9031 31.3549C20.9031 33.7562 22.8567 35.7098 25.258 35.7098H28.7419C30.1825 35.7098 31.3549 36.8822 31.3549 38.3227C31.3549 39.7633 30.1825 40.9357 28.7419 40.9357H25.258C23.8175 40.9357 22.645 39.7633 22.645 38.3227V37.4518H20.9031V38.3227C20.9031 40.7241 22.8567 42.6777 25.258 42.6777H26.129V45.2906H27.871V42.6777H28.7419C31.1433 42.6777 33.0969 40.7241 33.0969 38.3227C33.0969 35.9214 31.1433 33.9678 28.7419 33.9678H25.258C23.8175 33.9678 22.645 32.7954 22.645 31.3549C22.645 29.9143 23.8175 28.7419 25.258 28.7419H28.7419C30.1825 28.7419 31.3549 29.9143 31.3549 31.3549V32.2258H33.0969V31.3549C33.0967 28.9535 31.1431 26.9999 28.7419 26.9999Z" fill="#333333"/>
<path d="M36.5806 20.0323C36.5806 18.7232 35.6103 17.6457 34.3527 17.4586C35.7863 15.7549 36.5806 13.6089 36.5806 11.3226V9.58061C36.5806 8.14006 35.4082 6.96765 33.9677 6.96765C32.5271 6.96765 31.3547 8.14006 31.3547 9.58061C31.3547 10.0605 30.9637 10.4516 30.4837 10.4516C30.0038 10.4516 29.6128 10.0605 29.6128 9.58061C29.6128 8.14006 28.4403 6.96765 26.9998 6.96765C25.5592 6.96765 24.3868 8.14006 24.3868 9.58061C24.3868 10.0605 23.9958 10.4516 23.5159 10.4516C23.0359 10.4516 22.6449 10.0605 22.6449 9.58061C22.6449 8.14006 21.4725 6.96765 20.0319 6.96765C18.5914 6.96765 17.4189 8.14006 17.4189 9.58061V11.3226C17.4189 13.6089 18.2133 15.7549 19.6469 17.4586C18.3892 17.6459 17.4189 18.7232 17.4189 20.0323C17.4189 21.4728 18.5914 22.6452 20.0319 22.6452H33.9673C35.4082 22.6452 36.5806 21.4728 36.5806 20.0323ZM19.1613 9.58061C19.1613 9.10067 19.5523 8.70962 20.0323 8.70962C20.5122 8.70962 20.9033 9.10067 20.9033 9.58061C20.9033 11.0212 22.0757 12.1936 23.5162 12.1936C24.9568 12.1936 26.1292 11.0212 26.1292 9.58061C26.1292 9.10067 26.5202 8.70962 27.0002 8.70962C27.4801 8.70962 27.8711 9.10067 27.8711 9.58061C27.8711 11.0212 29.0436 12.1936 30.4841 12.1936C31.9247 12.1936 33.0971 11.0212 33.0971 9.58061C33.0971 9.10067 33.4881 8.70962 33.9681 8.70962C34.448 8.70962 34.839 9.10067 34.839 9.58061V11.3226C34.839 13.7142 33.7756 15.9195 31.9126 17.4193H22.0881C20.2243 15.9195 19.1616 13.7142 19.1616 11.3226V9.58061H19.1613ZM33.9677 20.9032H20.0323C19.5523 20.9032 19.1613 20.5122 19.1613 20.0323C19.1613 19.5523 19.5523 19.1613 20.0323 19.1613H21.4999H32.5002H33.9679C34.4478 19.1613 34.8389 19.5523 34.8389 20.0323C34.8387 20.5122 34.4476 20.9032 33.9677 20.9032Z" fill="#333333"/>
<path d="M18.2903 5.22573H35.7097C37.1502 5.22573 38.3226 4.05332 38.3226 2.61277C38.3226 1.17223 37.1502 0 35.7097 0H18.2903C16.8498 0 15.6774 1.17241 15.6774 2.61296C15.6774 4.0535 16.8498 5.22573 18.2903 5.22573ZM18.2903 1.74197H35.7097C36.1896 1.74197 36.5807 2.13302 36.5807 2.61296C36.5807 3.09289 36.1896 3.48394 35.7097 3.48394H18.2903C17.8104 3.48394 17.4193 3.09289 17.4193 2.61296C17.4193 2.13302 17.8104 1.74197 18.2903 1.74197Z" fill="#333333"/>
</svg>
