<svg width="174" height="48" viewBox="0 0 174 48" fill="none" xmlns="http://www.w3.org/2000/svg">
<path d="M39.4285 23C39.2769 23 39.1316 22.9398 39.0244 22.8326C38.9173 22.7255 38.8571 22.5801 38.8571 22.4286V20.7543C38.8571 20.6027 38.9173 20.4574 39.0244 20.3502C39.1316 20.2431 39.2769 20.1829 39.4285 20.1829C39.58 20.1829 39.7254 20.2431 39.8326 20.3502C39.9397 20.4574 39.9999 20.6027 39.9999 20.7543V22.4286C39.9999 22.5801 39.9397 22.7255 39.8326 22.8326C39.7254 22.9398 39.58 23 39.4285 23Z" fill="#FD8051"/>
<path d="M38.2857 41H1.71429C1.25963 41 0.823594 40.8194 0.502103 40.4979C0.180612 40.1764 0 39.7404 0 39.2857V2.71429C0 2.25963 0.180612 1.82359 0.502103 1.5021C0.823594 1.18061 1.25963 1 1.71429 1H38.2857C38.7404 1 39.1764 1.18061 39.4979 1.5021C39.8194 1.82359 40 2.25963 40 2.71429V16.7486C40 16.9001 39.9398 17.0455 39.8326 17.1526C39.7255 17.2598 39.5801 17.32 39.4286 17.32C39.277 17.32 39.1317 17.2598 39.0245 17.1526C38.9173 17.0455 38.8571 16.9001 38.8571 16.7486V2.71429C38.8571 2.56273 38.7969 2.41739 38.6898 2.31022C38.5826 2.20306 38.4373 2.14286 38.2857 2.14286H1.71429C1.56273 2.14286 1.41739 2.20306 1.31022 2.31022C1.20306 2.41739 1.14286 2.56273 1.14286 2.71429V39.2857C1.14286 39.4373 1.20306 39.5826 1.31022 39.6898C1.41739 39.7969 1.56273 39.8571 1.71429 39.8571H38.2857C38.4373 39.8571 38.5826 39.7969 38.6898 39.6898C38.7969 39.5826 38.8571 39.4373 38.8571 39.2857V32.1086C38.8571 31.957 38.9173 31.8117 39.0245 31.7045C39.1317 31.5973 39.277 31.5371 39.4286 31.5371C39.5801 31.5371 39.7255 31.5973 39.8326 31.7045C39.9398 31.8117 40 31.957 40 32.1086V39.2857C40 39.7404 39.8194 40.1764 39.4979 40.4979C39.1764 40.8194 38.7404 41 38.2857 41Z" fill="#FD8051"/>
<path d="M39.4285 28.6802C39.2769 28.6802 39.1316 28.62 39.0244 28.5128C38.9173 28.4056 38.8571 28.2603 38.8571 28.1087V26.4287C38.8571 26.2772 38.9173 26.1318 39.0244 26.0247C39.1316 25.9175 39.2769 25.8573 39.4285 25.8573C39.58 25.8573 39.7254 25.9175 39.8326 26.0247C39.9397 26.1318 39.9999 26.2772 39.9999 26.4287V28.1087C39.9999 28.2603 39.9397 28.4056 39.8326 28.5128C39.7254 28.62 39.58 28.6802 39.4285 28.6802Z" fill="#FD8051"/>
<path d="M39.4286 10.7143H0.571429C0.419876 10.7143 0.274531 10.6541 0.167368 10.5469C0.0602039 10.4397 0 10.2944 0 10.1428C0 9.99129 0.0602039 9.84594 0.167368 9.73878C0.274531 9.63161 0.419876 9.57141 0.571429 9.57141H39.4286C39.5801 9.57141 39.7255 9.63161 39.8326 9.73878C39.9398 9.84594 40 9.99129 40 10.1428C40 10.2944 39.9398 10.4397 39.8326 10.5469C39.7255 10.6541 39.5801 10.7143 39.4286 10.7143Z" fill="#FD8051"/>
<path d="M5.57552 8.00114C5.15148 8.00114 4.73696 7.87539 4.38438 7.63981C4.0318 7.40422 3.757 7.06937 3.59472 6.67761C3.43245 6.28584 3.38999 5.85476 3.47272 5.43886C3.55544 5.02297 3.75964 4.64094 4.05948 4.3411C4.35933 4.04125 4.74135 3.83706 5.15725 3.75433C5.57314 3.67161 6.00423 3.71406 6.39599 3.87634C6.78776 4.03861 7.1226 4.31341 7.35819 4.66599C7.59378 5.01857 7.71952 5.43309 7.71952 5.85714C7.71891 6.42557 7.49283 6.97056 7.09089 7.3725C6.68894 7.77445 6.14396 8.00053 5.57552 8.00114V8.00114ZM5.57552 4.85828C5.37741 4.85828 5.18376 4.91705 5.01908 5.02716C4.85439 5.13727 4.72607 5.29376 4.65037 5.47683C4.57466 5.6599 4.55497 5.86131 4.59378 6.05558C4.6326 6.24984 4.72818 6.42822 4.86842 6.56815C5.00866 6.70807 5.18726 6.80323 5.38161 6.84161C5.57596 6.87998 5.77733 6.85982 5.96023 6.7837C6.14312 6.70757 6.29932 6.5789 6.40905 6.41396C6.51878 6.24902 6.57711 6.05524 6.57666 5.85714C6.57636 5.59171 6.47078 5.33724 6.2831 5.14956C6.09541 4.96187 5.84095 4.8563 5.57552 4.85599V4.85828Z" fill="#FD8051"/>
<path d="M11.4046 8.00114C10.9806 8.00114 10.5661 7.87539 10.2135 7.63981C9.8609 7.40422 9.5861 7.06937 9.42382 6.67761C9.26155 6.28584 9.21909 5.85476 9.30182 5.43886C9.38454 5.02297 9.58874 4.64094 9.88858 4.3411C10.1884 4.04125 10.5705 3.83706 10.9863 3.75433C11.4022 3.67161 11.8333 3.71406 12.2251 3.87634C12.6169 4.03861 12.9517 4.31341 13.1873 4.66599C13.4229 5.01857 13.5486 5.43309 13.5486 5.85714C13.5479 6.42553 13.3217 6.97042 12.9198 7.37234C12.5179 7.77425 11.973 8.00038 11.4046 8.00114V8.00114ZM11.4046 4.85828C11.2065 4.85828 11.0129 4.91705 10.8482 5.02716C10.6835 5.13727 10.5552 5.29376 10.4795 5.47683C10.4038 5.6599 10.3841 5.86131 10.4229 6.05558C10.4617 6.24984 10.5573 6.42822 10.6975 6.56815C10.8378 6.70807 11.0164 6.80323 11.2107 6.84161C11.4051 6.87998 11.6064 6.85982 11.7893 6.7837C11.9722 6.70757 12.1284 6.5789 12.2381 6.41396C12.3479 6.24902 12.4062 6.05524 12.4058 5.85714C12.4055 5.59171 12.2999 5.33724 12.1122 5.14956C11.9245 4.96187 11.67 4.8563 11.4046 4.85599V4.85828Z" fill="#FD8051"/>
<path d="M17.2336 8.00114C16.8096 8.00114 16.395 7.87539 16.0425 7.63981C15.6899 7.40422 15.4151 7.06937 15.2528 6.67761C15.0905 6.28584 15.0481 5.85476 15.1308 5.43886C15.2135 5.02297 15.4177 4.64094 15.7176 4.3411C16.0174 4.04125 16.3994 3.83706 16.8153 3.75433C17.2312 3.67161 17.6623 3.71406 18.0541 3.87634C18.4458 4.03861 18.7807 4.31341 19.0163 4.66599C19.2519 5.01857 19.3776 5.43309 19.3776 5.85714C19.3768 6.42553 19.1507 6.97042 18.7488 7.37234C18.3469 7.77425 17.802 8.00038 17.2336 8.00114V8.00114ZM17.2336 4.85828C17.0355 4.85828 16.8418 4.91705 16.6772 5.02716C16.5125 5.13727 16.3842 5.29376 16.3084 5.47683C16.2327 5.6599 16.213 5.86131 16.2519 6.05558C16.2907 6.24984 16.3863 6.42822 16.5265 6.56815C16.6667 6.70807 16.8453 6.80323 17.0397 6.84161C17.234 6.87998 17.4354 6.85982 17.6183 6.7837C17.8012 6.70757 17.9574 6.5789 18.0671 6.41396C18.1769 6.24902 18.2352 6.05524 18.2347 5.85714C18.2344 5.59171 18.1289 5.33724 17.9412 5.14956C17.7535 4.96187 17.499 4.8563 17.2336 4.85599V4.85828Z" fill="#FD8051"/>
<path d="M35.9999 6.42862H22.3428C22.1912 6.42862 22.0459 6.36842 21.9387 6.26126C21.8316 6.15409 21.7714 6.00875 21.7714 5.8572C21.7714 5.70564 21.8316 5.5603 21.9387 5.45313C22.0459 5.34597 22.1912 5.28577 22.3428 5.28577H35.9999C36.1515 5.28577 36.2968 5.34597 36.404 5.45313C36.5112 5.5603 36.5714 5.70564 36.5714 5.8572C36.5714 6.00875 36.5112 6.15409 36.404 6.26126C36.2968 6.36842 36.1515 6.42862 35.9999 6.42862Z" fill="#FD8051"/>
<path d="M20.0057 36.7085C17.7465 36.7085 15.538 36.0386 13.6595 34.7834C11.7811 33.5283 10.317 31.7442 9.4524 29.657C8.58784 27.5697 8.36162 25.273 8.80238 23.0572C9.24313 20.8413 10.3311 18.806 11.9286 17.2085C13.5261 15.611 15.5614 14.523 17.7773 14.0823C19.9931 13.6415 22.2898 13.8677 24.3771 14.7323C26.4643 15.5969 28.2483 17.061 29.5035 18.9395C30.7587 20.8179 31.4286 23.0264 31.4286 25.2857C31.4253 28.3142 30.2207 31.2177 28.0793 33.3592C25.9378 35.5006 23.0343 36.7052 20.0057 36.7085V36.7085ZM20.0057 15.0057C17.9726 15.0057 15.985 15.6086 14.2945 16.7381C12.6039 17.8677 11.2863 19.4732 10.5083 21.3517C9.7302 23.2301 9.52662 25.2971 9.92328 27.2912C10.3199 29.2853 11.299 31.117 12.7367 32.5547C14.1744 33.9924 16.0061 34.9715 18.0002 35.3681C19.9943 35.7648 22.0613 35.5612 23.9397 34.7831C25.8182 34.0051 27.4237 32.6875 28.5533 30.9969C29.6828 29.3064 30.2857 27.3188 30.2857 25.2857C30.2827 22.5602 29.1987 19.9472 27.2715 18.0199C25.3442 16.0927 22.7312 15.0087 20.0057 15.0057V15.0057Z" fill="#FD8051"/>
<path d="M20.0058 36.7085C17.0183 36.7085 14.6783 31.6908 14.6783 25.2856C14.6783 18.8805 17.0183 13.8628 20.0058 13.8628C22.9932 13.8628 25.3332 18.8805 25.3332 25.2856C25.3332 31.6908 22.9926 36.7085 20.0058 36.7085ZM20.0058 15.0057C17.9846 15.0057 15.8212 19.1365 15.8212 25.2856C15.8212 31.4348 17.9846 35.5657 20.0058 35.5657C22.0269 35.5657 24.1903 31.4348 24.1903 25.2856C24.1903 19.1365 22.0269 15.0057 20.0058 15.0057V15.0057Z" fill="#FD8051"/>
<path d="M20.0056 36.7085C19.8541 36.7085 19.7087 36.6483 19.6016 36.5411C19.4944 36.434 19.4342 36.2886 19.4342 36.1371V14.4342C19.4342 14.2827 19.4944 14.1373 19.6016 14.0302C19.7087 13.923 19.8541 13.8628 20.0056 13.8628C20.1572 13.8628 20.3025 13.923 20.4097 14.0302C20.5169 14.1373 20.5771 14.2827 20.5771 14.4342V36.1371C20.5771 36.2886 20.5169 36.434 20.4097 36.5411C20.3025 36.6483 20.1572 36.7085 20.0056 36.7085Z" fill="#FD8051"/>
<path d="M30.8571 25.8572H9.1548C9.00325 25.8572 8.8579 25.797 8.75074 25.6898C8.64358 25.5827 8.58337 25.4373 8.58337 25.2858C8.58337 25.1342 8.64358 24.9889 8.75074 24.8817C8.8579 24.7746 9.00325 24.7144 9.1548 24.7144H30.8571C31.0086 24.7144 31.154 24.7746 31.2611 24.8817C31.3683 24.9889 31.4285 25.1342 31.4285 25.2858C31.4285 25.4373 31.3683 25.5827 31.2611 25.6898C31.154 25.797 31.0086 25.8572 30.8571 25.8572Z" fill="#FD8051"/>
<path d="M29.4 20.4286H10.6115C10.4599 20.4286 10.3146 20.3684 10.2074 20.2613C10.1002 20.1541 10.04 20.0087 10.04 19.8572C10.04 19.7056 10.1002 19.5603 10.2074 19.4531C10.3146 19.346 10.4599 19.2858 10.6115 19.2858H29.4C29.5516 19.2858 29.6969 19.346 29.8041 19.4531C29.9113 19.5603 29.9715 19.7056 29.9715 19.8572C29.9715 20.0087 29.9113 20.1541 29.8041 20.2613C29.6969 20.3684 29.5516 20.4286 29.4 20.4286Z" fill="#FD8051"/>
<path d="M29.4 31.2857H10.6115C10.4599 31.2857 10.3146 31.2255 10.2074 31.1183C10.1002 31.0112 10.04 30.8658 10.04 30.7143C10.04 30.5627 10.1002 30.4174 10.2074 30.3102C10.3146 30.203 10.4599 30.1428 10.6115 30.1428H29.4C29.5516 30.1428 29.6969 30.203 29.8041 30.3102C29.9113 30.4174 29.9715 30.5627 29.9715 30.7143C29.9715 30.8658 29.9113 31.0112 29.8041 31.1183C29.6969 31.2255 29.5516 31.2857 29.4 31.2857Z" fill="#FD8051"/>
<path d="M58.7758 3.8H69.6958C71.5158 3.8 72.8332 4.216 73.6478 5.048C74.4798 5.86267 74.8958 7.18 74.8958 9V11.6C74.8958 13.42 74.4798 14.746 73.6478 15.578C72.8332 16.3927 71.5158 16.8 69.6958 16.8H63.4558V22H58.7758V3.8ZM70.2158 9C70.2158 7.96 69.6958 7.44 68.6558 7.44H63.4558V13.16H68.6558C69.6958 13.16 70.2158 12.64 70.2158 11.6V9ZM77.2348 3.8H88.1548C89.9748 3.8 91.2921 4.216 92.1068 5.048C92.9388 5.86267 93.3548 7.18 93.3548 9V11.34C93.3548 12.7787 93.1121 13.8967 92.6268 14.694C92.1588 15.4913 91.4048 16.02 90.3648 16.28L93.6148 22H88.5448L85.5548 16.54H81.9148V22H77.2348V3.8ZM88.6748 9C88.6748 7.96 88.1548 7.44 87.1148 7.44H81.9148V12.9H87.1148C88.1548 12.9 88.6748 12.38 88.6748 11.34V9ZM107.648 8.74C107.648 7.7 107.128 7.18 106.088 7.18H101.668C100.628 7.18 100.108 7.7 100.108 8.74V17.06C100.108 18.1 100.628 18.62 101.668 18.62H106.088C107.128 18.62 107.648 18.1 107.648 17.06V8.74ZM112.328 17.06C112.328 18.88 111.912 20.206 111.08 21.038C110.265 21.8527 108.948 22.26 107.128 22.26H100.628C98.8077 22.26 97.4817 21.8527 96.6497 21.038C95.835 20.206 95.4277 18.88 95.4277 17.06V8.74C95.4277 6.92 95.835 5.60267 96.6497 4.788C97.4817 3.956 98.8077 3.54 100.628 3.54H107.128C108.948 3.54 110.265 3.956 111.08 4.788C111.912 5.60267 112.328 6.92 112.328 8.74V17.06ZM128.149 3.8L131.269 15.5L133.999 3.8H139.069L134.129 22H129.189L126.069 10.69L122.949 22H118.009L113.069 3.8H118.139L120.869 15.5L123.989 3.8H128.149ZM154.811 22H140.381V3.8H154.811V7.44H145.061V10.95H152.731V14.59H145.061V18.36H154.811V22ZM156.885 3.8H167.285C168.984 3.8 170.232 4.19 171.029 4.97C171.827 5.73267 172.225 6.90267 172.225 8.48C172.225 9.52 172 10.3693 171.549 11.028C171.099 11.6693 170.544 12.12 169.885 12.38C171.289 12.7613 172.243 13.6973 172.745 15.188C172.919 15.7253 173.005 16.3493 173.005 17.06C173.005 18.7587 172.607 20.0067 171.809 20.804C171.012 21.6013 169.764 22 168.065 22H156.885V3.8ZM168.325 16.28C168.325 15.24 167.805 14.72 166.765 14.72H161.565V18.36H166.765C167.805 18.36 168.325 17.84 168.325 16.8V16.28ZM167.545 9C167.545 7.96 167.025 7.44 165.985 7.44H161.565V11.08H165.985C167.025 11.08 167.545 10.56 167.545 9.52V9Z" fill="#FD8051"/>
<path d="M123.875 31C124.628 31 125.198 31.1967 125.585 31.59C125.978 31.9767 126.175 32.5467 126.175 33.3V35.7C126.175 36.4533 125.978 37.0267 125.585 37.42C125.198 37.8067 124.628 38 123.875 38H119.975V31H123.875ZM124.375 33.3C124.375 32.7 124.075 32.4 123.475 32.4H121.775V36.6H123.475C124.075 36.6 124.375 36.3 124.375 35.7V33.3ZM135.822 38H130.272V31H135.822V32.4H132.072V33.75H135.022V35.15H132.072V36.6H135.822V38ZM139.51 36.55C141.337 36.65 142.573 36.7 143.22 36.7C143.373 36.7 143.493 36.6567 143.58 36.57C143.673 36.4767 143.72 36.3533 143.72 36.2V35.3H141.42C140.72 35.3 140.21 35.1433 139.89 34.83C139.577 34.51 139.42 34 139.42 33.3V33C139.42 32.3 139.577 31.7933 139.89 31.48C140.21 31.16 140.72 31 141.42 31H144.93V32.4H141.82C141.42 32.4 141.22 32.6 141.22 33V33.2C141.22 33.6 141.42 33.8 141.82 33.8H143.62C144.273 33.8 144.753 33.9533 145.06 34.26C145.367 34.5667 145.52 35.0467 145.52 35.7V36.2C145.52 36.8533 145.367 37.3333 145.06 37.64C144.753 37.9467 144.273 38.1 143.62 38.1C143.28 38.1 142.92 38.0933 142.54 38.08L141.62 38.04C140.94 38.0067 140.237 37.96 139.51 37.9V36.55ZM152.819 38H149.219V36.6H150.119V32.4H149.219V31H152.819V32.4H151.919V36.6H152.819V38ZM162.818 37.85C161.258 38.0167 159.825 38.1 158.518 38.1C157.865 38.1 157.385 37.9467 157.078 37.64C156.772 37.3333 156.618 36.8533 156.618 36.2V33C156.618 32.3 156.775 31.7933 157.088 31.48C157.408 31.16 157.918 31 158.618 31H162.218V32.4H159.018C158.618 32.4 158.418 32.6 158.418 33V36.2C158.418 36.3533 158.462 36.4767 158.548 36.57C158.642 36.6567 158.765 36.7 158.918 36.7C159.685 36.7 160.385 36.6833 161.018 36.65V35.2H159.718V34H162.818V37.85ZM173.02 38H171.12L168.72 33.8V38H166.92V31H168.82L171.22 35.2V31H173.02V38Z" fill="#FD8051"/>
</svg>
